<svg xmlns="http://www.w3.org/2000/svg" viewBox="0 0 200 84.1" width="200" height="84.1"><style>.st0{fill:#005596}</style><path class="st0" d="M40.9 37l-.1 11.3v5.2c0 2.4 1.1 3.7 3.8 3.7 2.5 0 3.7-1.3 3.8-4.1l.2-16h10.1L58.5 52c0 8.8-3.1 14.1-14.5 14.1-10.3 0-13.6-6.3-13.6-11.5v-6.1l.3-11.5h10.2zM62.5 37h12.7l6.1 16.3h.1V37h9.1l-.3 28.3H77.6L71 48.8h-.1l.3 16.5h-8.9l.2-28.3zM116.2 65.3c-1.2.2-2.5.5-3.9.6-1.4.2-2.8.2-4.5.2-9.9 0-15.2-6.8-15.2-15 0-9.1 5.3-14.9 16.3-14.9 2.5 0 5 .2 7.5.7l-1.3 8.5c-1.4-.3-2.8-.4-4.2-.5-6.5 0-7.8 3.8-7.8 6.2 0 2.9 1.3 6.3 7.3 6.3 1.5 0 3-.1 4.5-.4l1.3 8.3zM131.9 36.2c9.9 0 15.2 6.8 15.2 14.9s-5.3 15-15.2 15c-9.9 0-15.2-6.8-15.2-15s5.3-14.9 15.2-14.9zm0 8.3c-3.6 0-4.6 3-4.6 6.6 0 3.6 1.1 6.6 4.6 6.6 3.6 0 4.6-3 4.6-6.6 0-3.6-1-6.6-4.6-6.6zM176.6 65.3h-11.3l-6-12-.1 12h-10l.2-28.3h15c7.9 0 10.4 3.8 10.4 8.5 0 3.8-2.5 7-6.1 7.1v.1l7.9 12.6zm-17.2-15.9h2.1c1.8 0 3.3-.2 3.3-2.6 0-1.9-.6-3.1-3.1-3.1h-2.3v5.7zM1.2 57.4c2.5.6 5.1.8 7.6.8 3.9 0 5.8-.4 6.7-1.3.5-.5.7-1.1.7-1.7 0-2.4-1.5-2.9-2.9-3.1l-5.2-1.3C1.8 49.2 0 44.3 0 41.4c-.1-3.1 1.1-6 3.2-8.2 2.5-2.5 6-3.8 12.4-3.8 3.8 0 7.5.3 11.2.9l-.8 7.6c-2.7-.5-5.4-.8-8.2-.7-3.2 0-6.4.4-6.4 3.4 0 2.1 2.2 2.6 2.9 2.7l6 1.1c4.9.9 7.6 4.3 7.6 9.6 0 8.3-4.8 12.3-14.7 12.3-4.4 0-8.7-.3-13-1l1-7.9z"/><linearGradient id="SVGID_1_" gradientUnits="userSpaceOnUse" x1="5866.27" y1="-6594" x2="5975.26" y2="-6690.86" gradientTransform="matrix(.5273 0 0 -.5273 -2957.47 -3466.42)"><stop offset="0" stop-color="#ffc425"/><stop offset=".15" stop-color="#febf26"/><stop offset=".33" stop-color="#fdb027"/><stop offset=".53" stop-color="#fa982a"/><stop offset=".74" stop-color="#f6772e"/><stop offset=".95" stop-color="#f04c34"/><stop offset="1" stop-color="#ef4135"/></linearGradient><path d="M195.4 48.7c0 14.5-7.8 27.9-20.4 35.1h5.8c20.7-15 25.3-44 10.3-64.7s-44-25.3-64.7-10.3a46.12 46.12 0 0 0-16.1 21.1h8.4a40.6 40.6 0 0 1 54.7-17.3 40.6 40.6 0 0 1 22 36.1z" fill="url(#SVGID_1_)"/></svg>